<svg xmlns="http://www.w3.org/2000/svg" viewBox="0 0 23 21" fill="none" stroke="currentColor" stroke-width="2" stroke-linecap="round" stroke-linejoin="round">
  <path d="M20.29 2.61C19.78 2.1 19.17 1.7 18.51 1.42c-.67-.28-1.38-.42-2.11-.42-.73 0-1.44.14-2.11.42-.67.27-1.27.68-1.78 1.19l-1.06 1.06-1.06-1.06C9.36 1.58 7.96 1 6.5 1 5.04 1 3.64 1.58 2.61 2.61 1.58 3.64 1 5.04 1 6.5c0 1.46.58 2.86 1.61 3.89l1.06 1.06L11.45 19.23l7.78-7.78 1.06-1.06c.51-.51.92-1.12 1.19-1.78.28-.67.42-1.39.42-2.11s-.14-1.44-.42-2.11c-.27-.67-.68-1.27-1.19-1.78Z"/>
</svg>
